<?xml version="1.0" encoding="UTF-8" standalone="no"?>
<!-- Created with Inkscape (http://www.inkscape.org/) -->

<svg
   xmlns:dc="http://purl.org/dc/elements/1.1/"
   xmlns:cc="http://creativecommons.org/ns#"
   xmlns:rdf="http://www.w3.org/1999/02/22-rdf-syntax-ns#"
   xmlns:svg="http://www.w3.org/2000/svg"
   xmlns="http://www.w3.org/2000/svg"
   xmlns:xlink="http://www.w3.org/1999/xlink"
   xmlns:sodipodi="http://sodipodi.sourceforge.net/DTD/sodipodi-0.dtd"
   xmlns:inkscape="http://www.inkscape.org/namespaces/inkscape"
   width="1186.4326"
   height="480.30301"
   id="svg5487"
   version="1.1"
   inkscape:version="0.47 r22583"
   sodipodi:docname="Taodyne_geeks_en.svg"
   style="display:inline"
   inkscape:export-filename="/Users/Lionel/Desktop/taodyne-logo.png"
   inkscape:export-xdpi="90"
   inkscape:export-ydpi="90">
  <defs
     id="defs5489">
    <inkscape:perspective
       sodipodi:type="inkscape:persp3d"
       inkscape:vp_x="0 : 240.1515 : 1"
       inkscape:vp_y="0 : 1000 : 0"
       inkscape:vp_z="1186.4326 : 240.1515 : 1"
       inkscape:persp3d-origin="593.21631 : 160.101 : 1"
       id="perspective63" />
    <linearGradient
       id="linearGradient4266">
      <stop
         style="stop-color:#ffffff;stop-opacity:0.49803922;"
         offset="0"
         id="stop4268" />
      <stop
         style="stop-color:#ffffff;stop-opacity:0;"
         offset="1"
         id="stop4270" />
    </linearGradient>
    <linearGradient
       id="linearGradient4250">
      <stop
         id="stop4252"
         offset="0"
         style="stop-color:#000000;stop-opacity:1;" />
      <stop
         style="stop-color:#ffffff;stop-opacity:1;"
         offset="0.875"
         id="stop4254" />
      <stop
         id="stop4256"
         offset="1"
         style="stop-color:#cccccc;stop-opacity:1;" />
    </linearGradient>
    <linearGradient
       id="linearGradient4159">
      <stop
         id="stop4169"
         offset="0"
         style="stop-color:#ffffff;stop-opacity:1;" />
      <stop
         style="stop-color:#ffffff;stop-opacity:1;"
         offset="0.69999999"
         id="stop4258" />
      <stop
         style="stop-color:#ffffff;stop-opacity:0.49803922;"
         offset="1"
         id="stop4163" />
    </linearGradient>
    <clipPath
       id="clipPath5530"
       clipPathUnits="userSpaceOnUse">
      <path
         id="path5532"
         d="m 0,0 1920,0 0,1080 L 0,1080 0,0 z"
         inkscape:connector-curvature="0" />
    </clipPath>
    <clipPath
       id="clipPath6199"
       clipPathUnits="userSpaceOnUse">
      <path
         id="path6201"
         d="m 0,0 1920,0 0,1080 L 0,1080 0,0 z"
         inkscape:connector-curvature="0" />
    </clipPath>
    <clipPath
       id="clipPath6349"
       clipPathUnits="userSpaceOnUse">
      <path
         id="path6351"
         d="m 0,0 1920,0 0,1080 L 0,1080 0,0 z"
         inkscape:connector-curvature="0" />
    </clipPath>
    <clipPath
       id="clipPath6519"
       clipPathUnits="userSpaceOnUse">
      <path
         id="path6521"
         d="m 0,0 1920,0 0,1080 L 0,1080 0,0 z"
         inkscape:connector-curvature="0" />
    </clipPath>
    <clipPath
       clipPathUnits="userSpaceOnUse"
       id="clipPath6519-6">
      <path
         d="m 0,0 1920,0 0,1080 L 0,1080 0,0 z"
         id="path6521-2"
         inkscape:connector-curvature="0" />
    </clipPath>
    <clipPath
       clipPathUnits="userSpaceOnUse"
       id="clipPath6349-5">
      <path
         d="m 0,0 1920,0 0,1080 L 0,1080 0,0 z"
         id="path6351-7"
         inkscape:connector-curvature="0" />
    </clipPath>
    <clipPath
       clipPathUnits="userSpaceOnUse"
       id="clipPath6199-8">
      <path
         d="m 0,0 1920,0 0,1080 L 0,1080 0,0 z"
         id="path6201-6"
         inkscape:connector-curvature="0" />
    </clipPath>
    <clipPath
       clipPathUnits="userSpaceOnUse"
       id="clipPath5530-3">
      <path
         d="m 0,0 1920,0 0,1080 L 0,1080 0,0 z"
         id="path5532-9"
         inkscape:connector-curvature="0" />
    </clipPath>
    <clipPath
       clipPathUnits="userSpaceOnUse"
       id="clipPath6519-7">
      <path
         d="m 0,0 1920,0 0,1080 L 0,1080 0,0 z"
         id="path6521-1"
         inkscape:connector-curvature="0" />
    </clipPath>
    <clipPath
       clipPathUnits="userSpaceOnUse"
       id="clipPath6349-52">
      <path
         d="m 0,0 1920,0 0,1080 L 0,1080 0,0 z"
         id="path6351-2"
         inkscape:connector-curvature="0" />
    </clipPath>
    <clipPath
       clipPathUnits="userSpaceOnUse"
       id="clipPath6199-2">
      <path
         d="m 0,0 1920,0 0,1080 L 0,1080 0,0 z"
         id="path6201-2"
         inkscape:connector-curvature="0" />
    </clipPath>
    <clipPath
       clipPathUnits="userSpaceOnUse"
       id="clipPath5530-0">
      <path
         d="m 0,0 1920,0 0,1080 L 0,1080 0,0 z"
         id="path5532-6"
         inkscape:connector-curvature="0" />
    </clipPath>
    <radialGradient
       inkscape:collect="always"
       xlink:href="#linearGradient4250"
       id="radialGradient4167"
       cx="613"
       cy="367.5"
       fx="613"
       fy="367.5"
       r="363.45847"
       gradientTransform="matrix(1,0,0,0.7757653,0,82.406253)"
       gradientUnits="userSpaceOnUse" />
    <radialGradient
       inkscape:collect="always"
       xlink:href="#linearGradient4159"
       id="radialGradient4248"
       cx="439.5"
       cy="439"
       fx="439.5"
       fy="439"
       r="0.5"
       gradientTransform="matrix(1,0,0,2,0,-439)"
       gradientUnits="userSpaceOnUse" />
    <radialGradient
       inkscape:collect="always"
       xlink:href="#linearGradient4159"
       id="radialGradient4262"
       gradientUnits="userSpaceOnUse"
       gradientTransform="matrix(1,0,0,2,0,-439)"
       cx="439.5"
       cy="439"
       fx="439.5"
       fy="439"
       r="0.5" />
    <radialGradient
       inkscape:collect="always"
       xlink:href="#linearGradient4266"
       id="radialGradient4272"
       cx="559.84912"
       cy="491.76758"
       fx="559.84912"
       fy="491.76758"
       r="503.87561"
       gradientTransform="matrix(1,0,0,0.54173107,0,225.3618)"
       gradientUnits="userSpaceOnUse" />
  </defs>
  <sodipodi:namedview
     id="base"
     pagecolor="#ffffff"
     bordercolor="#666666"
     borderopacity="1.0"
     inkscape:pageopacity="0"
     inkscape:pageshadow="2"
     inkscape:zoom="1"
     inkscape:cx="504.70597"
     inkscape:cy="182.6064"
     inkscape:document-units="px"
     inkscape:current-layer="layer4"
     showgrid="false"
     inkscape:window-width="1859"
     inkscape:window-height="1012"
     inkscape:window-x="0"
     inkscape:window-y="22"
     inkscape:window-maximized="0"
     fit-margin-top="0"
     fit-margin-left="0"
     fit-margin-right="0"
     fit-margin-bottom="0" />
  <metadata
     id="metadata5492">
    <rdf:RDF>
      <cc:Work
         rdf:about="">
        <dc:format>image/svg+xml</dc:format>
        <dc:type
           rdf:resource="http://purl.org/dc/dcmitype/StillImage" />
        <dc:title />
      </cc:Work>
    </rdf:RDF>
  </metadata>
  <g
     inkscape:groupmode="layer"
     id="layer2"
     inkscape:label="Logo"
     style="display:inline"
     transform="translate(-210.49939,-210.02499)"
     sodipodi:insensitive="true">
    <g
       style="font-size:40px;font-style:normal;font-weight:normal;line-height:125%;letter-spacing:0px;word-spacing:0px;fill:#000000;fill-opacity:1;stroke:none;font-family:Sans"
       id="text3177">
      <path
         d="m 305.28064,547.48901 -41.48438,0 0,-173.67187 -53.29687,0 0,-36.28125 148.07812,0 0,36.28125 -53.29687,0 0,173.67187"
         style="font-size:288px;font-variant:normal;font-weight:bold;font-stretch:normal;text-align:start;line-height:125%;writing-mode:lr-tb;text-anchor:start;font-family:DejaVu Sans Mono;-inkscape-font-specification:DejaVu Sans Mono Bold"
         id="path2890" />
    </g>
    <g
       style="font-size:40px;font-style:normal;font-weight:normal;line-height:125%;letter-spacing:0px;word-spacing:0px;fill:#000000;fill-opacity:1;stroke:none;font-family:Sans"
       id="text3181">
      <path
         d="m 423.61774,473.52649 c -15.37509,7e-5 -26.10945,1.96882 -32.20313,5.90625 -6.09381,3.93756 -9.14068,10.68756 -9.14062,20.25 -6e-5,7.12504 2.10931,12.79691 6.32812,17.01562 4.21868,4.21878 9.93743,6.32815 17.15625,6.32813 10.87491,2e-5 19.3124,-4.0781 25.3125,-12.23438 5.99989,-8.24995 8.99989,-19.73431 9,-34.45312 l 0,-2.8125 -16.45312,0 m 57.375,-15.89063 0,89.85938 -40.92188,0 0,-17.57813 c -4.96886,6.93751 -11.34385,12.28126 -19.125,16.03125 -7.78134,3.75 -16.35945,5.625 -25.73437,5.625 -17.90631,0 -31.87504,-4.73437 -41.90625,-14.20312 -9.93752,-9.46873 -14.90627,-22.68747 -14.90625,-39.65625 -2e-5,-18.37493 5.9531,-31.92179 17.85937,-40.64063 11.90621,-8.8124 30.32807,-13.21864 55.26563,-13.21875 l 28.54687,0 0,-6.89062 c -1.1e-4,-6.65613 -2.43761,-11.67175 -7.3125,-15.04688 -4.78135,-3.46862 -11.85947,-5.20299 -21.23437,-5.20312 -9.84383,1.3e-4 -19.40632,1.26575 -28.6875,3.79687 -9.18755,2.43763 -18.79692,6.37512 -28.82813,11.8125 l 0,-35.15625 c 9.09371,-3.74984 18.32808,-6.51546 27.70313,-8.29687 9.37493,-1.78109 19.31242,-2.67171 29.8125,-2.67188 25.59363,1.7e-4 43.54674,5.20329 53.85937,15.60938 10.4061,10.40638 15.60922,29.01574 15.60938,55.82812"
         style="font-size:288px;font-variant:normal;font-weight:bold;font-stretch:normal;text-align:start;line-height:125%;writing-mode:lr-tb;text-anchor:start;font-family:DejaVu Sans Mono;-inkscape-font-specification:DejaVu Sans Mono Bold"
         id="path2887" />
    </g>
    <g
       style="font-size:40px;font-style:normal;font-weight:normal;line-height:125%;letter-spacing:0px;word-spacing:0px;fill:#000000;fill-opacity:1;stroke:none;font-family:Sans"
       id="text3035">
      <path
         d="m 672.772,422.376 c 0,-47.51995 -37.15205,-84.672 -85.248,-84.672 -46.36795,0 -84.384,37.72805 -84.384,83.52 0,46.07995 38.01605,83.52 84.672,83.52 46.36795,0 84.96,-37.44004 84.96,-82.368 m -38.592,-1.152 c 0,26.78397 -20.73603,48.384 -46.08,48.384 -25.91997,0 -46.368,-21.60003 -46.368,-48.96 0,-26.20797 21.02403,-47.808 46.08,-47.808 25.63197,0 46.368,21.88803 46.368,48.384"
         style="font-size:288px;font-variant:normal;font-weight:bold;font-stretch:normal;font-family:TeX Gyre Adventor;-inkscape-font-specification:TeX Gyre Adventor Bold"
         id="path2884" />
    </g>
    <g
       style="font-size:40px;font-style:normal;font-weight:normal;line-height:125%;letter-spacing:0px;word-spacing:0px;fill:#666666;fill-opacity:1;stroke:none;font-family:Sans"
       id="text3039">
      <path
         d="m 861.544,548.0625 0,-212.832 -38.304,0 0,67.392 c -11.23199,-12.38399 -29.66402,-19.872 -49.824,-19.872 -44.63996,0 -79.776,37.44005 -79.776,85.248 0,47.23195 34.84805,83.808 80.064,83.808 21.59998,0 37.44002,-7.20002 52.704,-24.48 l 0,20.736 35.136,0 m -35.424,-80.64 c 0,27.64797 -20.44803,49.248 -46.368,49.248 -26.78397,0 -47.52,-22.17603 -47.52,-50.4 0,-27.07197 20.44803,-48.384 46.656,-48.384 26.78397,0 47.232,21.60003 47.232,49.536"
         style="font-size:288px;font-variant:normal;font-weight:bold;font-stretch:normal;fill:#666666;font-family:TeX Gyre Adventor;-inkscape-font-specification:TeX Gyre Adventor Bold"
         id="path2875" />
      <path
         d="m 1038.709,388.5105 -44.064,0 -38.592,103.392 -35.424,-103.392 -43.776,0 58.464,144.576 -29.952,68.256 41.184,0 92.16,-212.832"
         style="font-size:288px;font-variant:normal;font-weight:bold;font-stretch:normal;fill:#666666;font-family:TeX Gyre Adventor;-inkscape-font-specification:TeX Gyre Adventor Bold"
         id="path2877" />
      <path
         d="m 1199.4355,548.0625 0,-85.536 c 0,-28.51197 -2.88,-42.33601 -11.52,-54.72 -10.368,-14.97599 -27.648,-23.04 -49.824,-23.04 -18.144,0 -30.816,5.47201 -44.928,19.008 l 0,-15.264 -35.424,0 0,159.552 38.304,0 0,-75.168 c 0,-21.31198 1.44,-30.52801 6.336,-38.304 6.048,-9.50399 16.128,-14.688 28.224,-14.688 19.008,0 30.528,7.48804 30.528,50.112 l 0,78.048 38.304,0"
         style="font-size:288px;font-variant:normal;font-weight:bold;font-stretch:normal;fill:#666666;font-family:TeX Gyre Adventor;-inkscape-font-specification:TeX Gyre Adventor Bold"
         id="path2879" />
      <path
         d="m 1389.979,470.5905 c 0,-49.53595 -34.848,-85.824 -82.368,-85.824 -46.944,0 -84.096,37.15205 -84.096,84.096 0,46.65595 37.728,82.944 86.4,82.944 32.256,0 65.376,-18.14403 76.032,-50.976 l -41.76,0 c -9.792,11.51999 -19.296,15.84 -35.136,15.84 -22.752,0 -39.456,-12.09602 -44.064,-31.392 l 123.552,0 c 1.152,-5.47199 1.44,-8.92801 1.44,-14.688 m -37.728,-19.008 -88.416,0 c 6.048,-20.44798 21.6,-31.68 44.352,-31.68 23.616,0 39.168,11.23202 44.064,31.68"
         style="font-size:288px;font-variant:normal;font-weight:bold;font-stretch:normal;fill:#666666;font-family:TeX Gyre Adventor;-inkscape-font-specification:TeX Gyre Adventor Bold"
         id="path2881" />
    </g>
    <path
       transform="scale(1,-1)"
       style="fill:#000000;fill-opacity:1;fill-rule:evenodd;stroke:none"
       d="m 541.375,-565.75 96,0 c 9.972,0 18,8.028 18,18 0,9.972 -8.028,18 -18,18 l -96,0 c -9.972,0 -18,-8.028 -18,-18 0,-9.972 8.028,-18 18,-18 z"
       id="rect3047" />
    <rect
       style="fill:#eeaa11;fill-opacity:1;fill-rule:evenodd;stroke:none"
       id="rect3857"
       width="36"
       height="100"
       x="571.01245"
       y="210.02499"
       rx="18"
       ry="18" />
    <path
       transform="matrix(0.8660254,-0.5,0.5,0.8660254,0,0)"
       style="fill:#dd3311;fill-opacity:1;fill-rule:evenodd;stroke:none;display:inline"
       d="m 300.21094,448.51941 c 9.972,0 18,8.028 18,18 l 0,64 c 0,9.972 -8.028,18 -18,18 -9.972,0 -18,-8.028 -18,-18 l 0,-64 c 0,-9.972 8.028,-18 18,-18 z"
       id="rect3857-1" />
    <path
       transform="matrix(0.5,-0.8660254,-0.8660254,-0.5,0,0)"
       style="fill:#aa0022;fill-opacity:1;fill-rule:evenodd;stroke:none;display:inline"
       d="m -70.260536,-610.18018 c 9.972,0 18,8.028 18,18 l 0,64 c 0,9.972 -8.028,18 -18,18 -9.972,0 -18,-8.028 -18,-18 l 0,-64 c 0,-9.972 8.028,-18 18,-18 z"
       id="rect3857-0" />
    <path
       transform="matrix(0.8660254,0.5,-0.5,0.8660254,0,0)"
       style="fill:#88bb00;fill-opacity:1;fill-rule:evenodd;stroke:none;display:inline"
       d="m 719.81683,-141.11562 c 9.972,0 18,8.028 18,18 l 0,64.000004 c 0,9.972 -8.028,18 -18,18 -9.972,0 -18,-8.028 -18,-18 l 0,-64.000004 c 0,-9.972 8.028,-18 18,-18 z"
       id="rect3857-5" />
    <path
       transform="matrix(0.5,0.8660254,-0.8660254,0.5,0,0)"
       style="fill:#229988;fill-opacity:1;fill-rule:evenodd;stroke:none;display:inline"
       d="m 659.78955,-510.414 c 9.972,0 18,8.028 18,18 l 0,64 c 0,9.972 -8.028,18 -18,18 -9.972,0 -18,-8.028 -18,-18 l 0,-64 c 0,-9.972 8.028,-18 18,-18 z"
       id="rect3857-7" />
  </g>
  <g
     inkscape:groupmode="layer"
     id="layer4"
     inkscape:label="Tagline 1"
     style="display:inline"
     transform="translate(-210.49939,-210.02499)"
     sodipodi:insensitive="true">
    <g
       style="font-size:40px;font-style:normal;font-weight:normal;line-height:125%;letter-spacing:0px;word-spacing:0px;fill:#aa0022;fill-opacity:1;stroke:none;font-family:Sans"
       id="text4056">
      <path
         d="m 644.1645,605.368 c 2.94393,0.38406 5.59993,1.12006 7.968,2.208 2.36792,1.08806 4.35192,2.46406 5.952,4.128 1.66392,1.60005 2.94391,3.45605 3.84,5.568 0.89591,2.04805 1.34391,4.22405 1.344,6.528 -9e-5,3.00804 -0.60809,5.82404 -1.824,8.448 -1.15208,2.62403 -2.81608,4.89603 -4.992,6.816 -2.11208,1.92003 -4.70408,3.45602 -7.776,4.608 -3.07207,1.08802 -6.52807,1.63202 -10.368,1.632 -4.16006,2e-5 -7.61605,-1.02398 -10.368,-3.072 -4.03205,8.64002 -8.76804,14.94401 -14.208,18.912 -5.44003,3.904 -11.29603,5.856 -17.568,5.856 -5.31202,0 -9.24801,-1.312 -11.808,-3.936 -2.49601,-2.68799 -3.744,-6.04799 -3.744,-10.08 0,-1.21598 0.192,-2.43198 0.576,-3.648 0.44799,-1.27998 1.05599,-2.46398 1.824,-3.552 0.76799,-1.15198 1.69599,-2.17598 2.784,-3.072 1.15199,-0.89597 2.43199,-1.63197 3.84,-2.208 0.19199,-0.12797 0.35199,-0.12797 0.48,0 0.19199,0.12803 0.22399,0.35203 0.096,0.672 -1.92001,1.02402 -3.32801,2.40002 -4.224,4.128 -0.89601,1.72802 -1.34401,3.58402 -1.344,5.568 -10e-6,1.72801 0.28799,3.39201 0.864,4.992 0.57599,1.53601 1.47199,2.88001 2.688,4.032 1.27999,1.15201 2.87998,2.08001 4.8,2.784 1.91998,0.64 4.22398,0.96 6.912,0.96 3.07197,0 5.75997,-0.384 8.064,-1.152 2.30397,-0.76799 4.38396,-2.11199 6.24,-4.032 1.91996,-1.91999 3.64796,-4.51199 5.184,-7.776 1.59995,-3.32798 3.19995,-7.51998 4.8,-12.576 -1.15205,-1.85597 -1.95205,-3.87197 -2.4,-6.048 0.0639,-0.25596 0.19195,-0.44796 0.384,-0.576 0.19195,-0.12796 0.35195,-0.096 0.48,0.096 0.44795,1.85603 1.11995,3.52003 2.016,4.992 0.25595,-0.83197 0.47995,-1.69597 0.672,-2.592 0.25595,-0.89597 0.51195,-1.79197 0.768,-2.688 1.59995,-5.69596 3.35995,-10.43195 5.28,-14.208 1.91994,-3.77595 4.09594,-6.81594 6.528,-9.12 -0.32006,-0.0639 -0.80006,-0.0959 -1.44,-0.096 -6.78405,6e-5 -12.48005,1.56806 -17.088,4.704 -4.60804,3.07205 -7.84004,7.80805 -9.696,14.208 -0.19203,0.19204 -0.41603,0.22404 -0.672,0.096 -0.19203,-0.19196 -0.28803,-0.51196 -0.288,-0.96 2.17596,-6.39995 5.79196,-11.45595 10.848,-15.168 5.11995,-3.71194 11.83994,-5.56794 20.16,-5.568 l 1.536,0 c 2.43193,-1.59994 5.15193,-2.78394 8.16,-3.552 0.31993,7e-5 0.47993,0.16007 0.48,0.48 -7e-5,0.25606 -0.16007,0.44806 -0.48,0.576 -1.92007,0.57606 -3.68007,1.47206 -5.28,2.688 m -4.8,38.016 c 2.68793,2e-5 5.11993,-0.44798 7.296,-1.344 2.17593,-0.89597 4.03193,-2.14397 5.568,-3.744 1.59992,-1.59997 2.81592,-3.45597 3.648,-5.568 0.83192,-2.11196 1.24792,-4.38396 1.248,-6.816 -8e-5,-4.54395 -1.37608,-8.38395 -4.128,-11.52 -2.68807,-3.19994 -6.56007,-5.24794 -11.616,-6.144 -3.20006,4.03205 -5.85606,10.17605 -7.968,18.432 -0.70406,2.62404 -1.47206,5.12004 -2.304,7.488 -0.76805,2.30403 -1.60005,4.48003 -2.496,6.528 2.62394,1.79202 6.20794,2.68802 10.752,2.688"
         style="font-size:96px;font-variant:normal;font-weight:bold;font-stretch:normal;fill:#aa0022;font-family:Tangerine;-inkscape-font-specification:Tangerine Bold"
         id="path2872" />
      <path
         d="m 667.806,645.208 c -1e-5,0.96002 -0.096,2.04802 -0.288,3.264 -0.19201,1.21602 -0.44801,2.46402 -0.768,3.744 1.27999,-3.07198 2.68799,-5.47198 4.224,-7.2 1.53598,-1.72798 3.19998,-2.59198 4.992,-2.592 0.95998,2e-5 1.69598,0.22402 2.208,0.672 0.51198,0.44802 0.76798,1.02402 0.768,1.728 -2e-5,0.64002 -0.25602,1.47202 -0.768,2.496 -0.44802,1.02402 -0.83202,1.72802 -1.152,2.112 -0.12802,0.064 -0.25602,0.064 -0.384,0 -0.12802,-0.12798 -0.19202,-0.25598 -0.192,-0.384 -2e-5,-0.44798 -0.19202,-0.83198 -0.576,-1.152 -0.32002,-0.31998 -0.83202,-0.47998 -1.536,-0.48 -2.24002,2e-5 -4.28802,1.53602 -6.144,4.608 -1.79201,3.00801 -3.45601,7.36001 -4.992,13.056 -0.064,0.32 -0.28801,0.608 -0.672,0.864 -0.38401,0.192 -0.83201,0.384 -1.344,0.576 -0.44801,0.128 -0.92801,0.256 -1.44,0.384 -0.512,0.064 -0.96,0.096 -1.344,0.096 -0.704,0 -0.896,-0.384 -0.576,-1.152 0.576,-1.344 1.12,-2.784 1.632,-4.32 0.57599,-1.59999 1.08799,-3.19999 1.536,-4.8 0.44799,-1.59999 0.83199,-3.13599 1.152,-4.608 0.31999,-1.53598 0.57599,-2.94398 0.768,-4.224 0.12799,-0.95998 0.15999,-1.69598 0.096,-2.208 -10e-6,-0.51198 -0.25601,-0.76798 -0.768,-0.768 -0.64001,2e-5 -1.31201,0.28802 -2.016,0.864 -0.64,0.51202 -1.248,1.18402 -1.824,2.016 -0.256,0.19202 -0.512,0.22402 -0.768,0.096 -0.192,-0.19198 -0.224,-0.41598 -0.096,-0.672 0.384,-0.51198 0.832,-1.02398 1.344,-1.536 0.576,-0.57598 1.18399,-1.08798 1.824,-1.536 0.70399,-0.51198 1.40799,-0.92798 2.112,-1.248 0.76799,-0.31998 1.53599,-0.47998 2.304,-0.48 1.02399,2e-5 1.72799,0.25602 2.112,0.768 0.38399,0.44802 0.57599,1.12002 0.576,2.016"
         style="font-size:96px;font-variant:normal;font-weight:bold;font-stretch:normal;fill:#aa0022;font-family:Tangerine;-inkscape-font-specification:Tangerine Bold"
         id="path2874" />
      <path
         d="m 697.9395,647.224 c -2e-5,3.64802 -4.83202,6.14401 -14.496,7.488 -0.064,0.64001 -0.12801,1.28001 -0.192,1.92 -10e-6,0.64001 -10e-6,1.31201 0,2.016 -10e-6,1.66401 0.38399,2.94401 1.152,3.84 0.76799,0.896 1.98399,1.344 3.648,1.344 1.21599,0 2.46398,-0.352 3.744,-1.056 1.27998,-0.704 2.30398,-1.59999 3.072,-2.688 0.25598,-0.12799 0.44798,-0.064 0.576,0.192 0.12798,0.19201 0.15998,0.41601 0.096,0.672 -1.28002,1.664 -2.91202,3.104 -4.896,4.32 -1.92001,1.152 -4.00001,1.728 -6.24,1.728 -2.24001,0 -3.87201,-0.544 -4.896,-1.632 -0.96,-1.152 -1.44,-2.752 -1.44,-4.8 0,-1.98399 0.416,-4.03199 1.248,-6.144 0.832,-2.17599 1.88799,-4.15998 3.168,-5.952 1.34399,-1.79198 2.84799,-3.23198 4.512,-4.32 1.72799,-1.15198 3.45598,-1.72798 5.184,-1.728 1.72798,2e-5 3.10398,0.51202 4.128,1.536 1.08798,0.96002 1.63198,2.04802 1.632,3.264 m -8.352,-2.304 c -1.47201,2e-5 -2.75201,0.70402 -3.84,2.112 -1.02401,1.34402 -1.72801,3.45602 -2.112,6.336 3.07199,-0.31999 5.34399,-0.89599 6.816,-1.728 1.47198,-0.89598 2.20798,-1.98398 2.208,-3.264 -2e-5,-0.95998 -0.28802,-1.75998 -0.864,-2.4 -0.57602,-0.70398 -1.31202,-1.05598 -2.208,-1.056"
         style="font-size:96px;font-variant:normal;font-weight:bold;font-stretch:normal;fill:#aa0022;font-family:Tangerine;-inkscape-font-specification:Tangerine Bold"
         id="path2876" />
      <path
         d="m 712.755,642.424 c 1.40798,2e-5 2.52798,0.19202 3.36,0.576 0.89598,0.38402 1.34398,0.86402 1.344,1.44 -2e-5,0.70402 -0.19202,1.50402 -0.576,2.4 -0.32002,0.89602 -0.64002,1.63202 -0.96,2.208 -0.12802,0.12802 -0.28802,0.16002 -0.48,0.096 -0.19202,-0.12798 -0.28802,-0.31998 -0.288,-0.576 0.19198,-0.44798 0.28798,-1.08798 0.288,-1.92 -2e-5,-0.89598 -0.25602,-1.63198 -0.768,-2.208 -0.44802,-0.57598 -1.08802,-0.86398 -1.92,-0.864 -1.08801,2e-5 -1.98401,0.35202 -2.688,1.056 -0.64001,0.64002 -0.96001,1.56802 -0.96,2.784 -10e-6,1.02402 0.25599,2.01602 0.768,2.976 0.57599,0.89602 1.18399,1.82401 1.824,2.784 0.70399,0.89601 1.34398,1.88801 1.92,2.976 0.57598,1.02401 0.86398,2.20801 0.864,3.552 -2e-5,2.304 -0.92802,4.096 -2.784,5.376 -1.85601,1.28 -4.28801,1.92 -7.296,1.92 -2.176,0 -3.904,-0.352 -5.184,-1.056 -1.216,-0.704 -1.824,-1.472 -1.824,-2.304 0,-0.256 0.096,-0.608 0.288,-1.056 0.192,-0.448 0.448,-0.92799 0.768,-1.44 0.32,-0.51199 0.672,-1.02399 1.056,-1.536 0.384,-0.51199 0.8,-0.92799 1.248,-1.248 0.192,-0.12799 0.352,-0.096 0.48,0.096 0.192,0.19201 0.224,0.38401 0.096,0.576 -0.384,0.38401 -0.672,0.80001 -0.864,1.248 -0.192,0.38401 -0.288,0.92801 -0.288,1.632 0,1.152 0.384,2.112 1.152,2.88 0.768,0.704 1.75999,1.056 2.976,1.056 1.66399,0 2.94399,-0.448 3.84,-1.344 0.95999,-0.96 1.43999,-2.112 1.44,-3.456 -10e-6,-1.21599 -0.28801,-2.33599 -0.864,-3.36 -0.51201,-1.08799 -1.08801,-2.11199 -1.728,-3.072 -0.64001,-1.02399 -1.24801,-2.04799 -1.824,-3.072 -0.51201,-1.02398 -0.76801,-2.11198 -0.768,-3.264 -10e-6,-1.66398 0.70399,-3.03998 2.112,-4.128 1.40799,-1.15198 3.48799,-1.72798 6.24,-1.728"
         style="font-size:96px;font-variant:normal;font-weight:bold;font-stretch:normal;fill:#aa0022;font-family:Tangerine;-inkscape-font-specification:Tangerine Bold"
         id="path2878" />
      <path
         d="m 740.502,647.224 c -2e-5,3.64802 -4.83202,6.14401 -14.496,7.488 -0.064,0.64001 -0.12801,1.28001 -0.192,1.92 -10e-6,0.64001 -10e-6,1.31201 0,2.016 -10e-6,1.66401 0.38399,2.94401 1.152,3.84 0.76799,0.896 1.98399,1.344 3.648,1.344 1.21599,0 2.46398,-0.352 3.744,-1.056 1.27998,-0.704 2.30398,-1.59999 3.072,-2.688 0.25598,-0.12799 0.44798,-0.064 0.576,0.192 0.12798,0.19201 0.15998,0.41601 0.096,0.672 -1.28002,1.664 -2.91202,3.104 -4.896,4.32 -1.92001,1.152 -4.00001,1.728 -6.24,1.728 -2.24001,0 -3.87201,-0.544 -4.896,-1.632 -0.96,-1.152 -1.44,-2.752 -1.44,-4.8 0,-1.98399 0.416,-4.03199 1.248,-6.144 0.832,-2.17599 1.88799,-4.15998 3.168,-5.952 1.34399,-1.79198 2.84799,-3.23198 4.512,-4.32 1.72799,-1.15198 3.45598,-1.72798 5.184,-1.728 1.72798,2e-5 3.10398,0.51202 4.128,1.536 1.08798,0.96002 1.63198,2.04802 1.632,3.264 m -8.352,-2.304 c -1.47201,2e-5 -2.75201,0.70402 -3.84,2.112 -1.02401,1.34402 -1.72801,3.45602 -2.112,6.336 3.07199,-0.31999 5.34399,-0.89599 6.816,-1.728 1.47198,-0.89598 2.20798,-1.98398 2.208,-3.264 -2e-5,-0.95998 -0.28802,-1.75998 -0.864,-2.4 -0.57602,-0.70398 -1.31202,-1.05598 -2.208,-1.056"
         style="font-size:96px;font-variant:normal;font-weight:bold;font-stretch:normal;fill:#aa0022;font-family:Tangerine;-inkscape-font-specification:Tangerine Bold"
         id="path2880" />
      <path
         d="m 770.5815,660.28 c 0.12797,-0.12799 0.28797,-0.096 0.48,0.096 0.19197,0.12801 0.25597,0.32001 0.192,0.576 -1.15203,1.6 -2.49603,3.008 -4.032,4.224 -1.47203,1.216 -2.94402,1.824 -4.416,1.824 -1.08802,0 -1.95202,-0.352 -2.592,-1.056 -0.57602,-0.704 -0.86402,-1.632 -0.864,-2.784 -2e-5,-2.23999 0.38398,-4.67199 1.152,-7.296 0.83198,-2.62399 1.91998,-5.27998 3.264,-7.968 0.19198,-0.44798 0.28798,-0.92798 0.288,-1.44 -2e-5,-0.63998 -0.28802,-0.95998 -0.864,-0.96 -2.36802,2e-5 -4.99202,1.63202 -7.872,4.896 -2.88001,3.20001 -5.53601,8.32001 -7.968,15.36 -0.064,0.192 -0.28801,0.384 -0.672,0.576 -0.32001,0.128 -0.70401,0.256 -1.152,0.384 -0.448,0.064 -0.896,0.128 -1.344,0.192 -0.448,0.064 -0.8,0.096 -1.056,0.096 -0.32,0 -0.576,-0.064 -0.768,-0.192 -0.128,-0.128 -0.128,-0.352 0,-0.672 1.088,-2.752 2.176,-5.75999 3.264,-9.024 1.15199,-3.32799 2.14399,-6.65598 2.976,-9.984 0.19199,-0.63998 0.22399,-1.08798 0.096,-1.344 -0.12801,-0.31998 -0.35201,-0.47998 -0.672,-0.48 -0.70401,2e-5 -1.37601,0.32002 -2.016,0.96 -0.64,0.57602 -1.216,1.21602 -1.728,1.92 -0.192,0.12802 -0.384,0.096 -0.576,-0.096 -0.128,-0.19198 -0.16,-0.38398 -0.096,-0.576 0.32,-0.44798 0.736,-0.95998 1.248,-1.536 0.576,-0.57598 1.21599,-1.11998 1.92,-1.632 0.70399,-0.57598 1.43999,-1.02398 2.208,-1.344 0.76799,-0.38398 1.53599,-0.57598 2.304,-0.576 1.08799,2e-5 1.79199,0.35202 2.112,1.056 0.38399,0.64002 0.47999,1.44002 0.288,2.4 -0.32001,1.40802 -0.67201,2.75202 -1.056,4.032 -0.32001,1.21602 -0.73601,2.59201 -1.248,4.128 0.76799,-1.40799 1.69599,-2.78398 2.784,-4.128 1.15199,-1.40798 2.39998,-2.65598 3.744,-3.744 1.40798,-1.15198 2.91198,-2.04798 4.512,-2.688 1.59998,-0.70398 3.29597,-1.05598 5.088,-1.056 0.76797,2e-5 1.34397,0.19202 1.728,0.576 0.44797,0.38402 0.67197,0.83202 0.672,1.344 -3e-5,0.89602 -0.22403,1.69602 -0.672,2.4 -1.34403,2.43202 -2.49603,4.96002 -3.456,7.584 -0.89602,2.56001 -1.34402,4.86401 -1.344,6.912 -2e-5,1.664 0.54398,2.496 1.632,2.496 0.70397,0 1.40797,-0.288 2.112,-0.864 0.70397,-0.576 1.50397,-1.43999 2.4,-2.592"
         style="font-size:96px;font-variant:normal;font-weight:bold;font-stretch:normal;fill:#aa0022;font-family:Tangerine;-inkscape-font-specification:Tangerine Bold"
         id="path2882" />
      <path
         d="m 792.687,642.904 c 0.31998,0.12802 0.44798,0.32002 0.384,0.576 -0.064,0.19202 -0.35202,0.35202 -0.864,0.48 -0.96002,2e-5 -2.08002,0.032 -3.36,0.096 -1.21602,0.064 -2.52801,0.16002 -3.936,0.288 -1.28001,3.13602 -2.33601,6.20802 -3.168,9.216 -0.83201,2.94401 -1.24801,5.34401 -1.248,7.2 -10e-6,2.176 0.83199,3.264 2.496,3.264 1.66399,0 3.51998,-1.44 5.568,-4.32 0.19198,-0.12799 0.35198,-0.12799 0.48,0 0.19198,0.12801 0.25598,0.35201 0.192,0.672 -1.08802,1.792 -2.46402,3.36 -4.128,4.704 -1.66401,1.28 -3.29601,1.92 -4.896,1.92 -1.66401,0 -2.91201,-0.384 -3.744,-1.152 -0.768,-0.832 -1.152,-1.952 -1.152,-3.36 0,-1.85599 0.448,-4.41599 1.344,-7.68 0.89599,-3.26398 2.04799,-6.59198 3.456,-9.984 -1.66401,0.19202 -3.20001,0.44802 -4.608,0.768 -0.32,-0.064 -0.416,-0.22398 -0.288,-0.48 0.192,-0.25598 0.48,-0.51198 0.864,-0.768 0.44799,-0.31998 0.95999,-0.57598 1.536,-0.768 0.57599,-0.25598 1.11999,-0.38398 1.632,-0.384 0.25599,2e-5 0.51199,2e-5 0.768,0 0.25599,2e-5 0.51199,-0.032 0.768,-0.096 0.83199,-1.85597 1.69599,-3.64797 2.592,-5.376 0.89599,-1.72797 1.79199,-3.29597 2.688,-4.704 0.38398,-0.44797 0.89598,-0.83197 1.536,-1.152 0.70398,-0.38396 1.37598,-0.67196 2.016,-0.864 0.63998,-0.19196 1.15198,-0.28796 1.536,-0.288 0.44798,-0.064 0.63998,0.032 0.576,0.288 -1.08802,1.66403 -2.17602,3.52003 -3.264,5.568 -1.02402,2.04803 -2.01602,4.19203 -2.976,6.432 1.21598,-0.064 2.43198,-0.096 3.648,-0.096 1.27998,2e-5 2.46398,2e-5 3.552,0"
         style="font-size:96px;font-variant:normal;font-weight:bold;font-stretch:normal;fill:#aa0022;font-family:Tangerine;-inkscape-font-specification:Tangerine Bold"
         id="path2885" />
      <path
         d="m 818.559,660.952 c 0.12797,-0.12799 0.28797,-0.12799 0.48,0 0.19197,0.12801 0.25597,0.32001 0.192,0.576 -1.15203,1.664 -2.43203,3.008 -3.84,4.032 -1.40802,0.96 -2.75202,1.44 -4.032,1.44 -1.47202,0 -2.43202,-1.024 -2.88,-3.072 -0.38402,-2.11199 -0.16002,-4.60799 0.672,-7.488 -1.72802,2.75201 -3.61602,5.12001 -5.664,7.104 -1.98401,1.92 -4.09601,3.072 -6.336,3.456 -1.53601,0 -2.72001,-0.704 -3.552,-2.112 -0.832,-1.408 -1.248,-3.03999 -1.248,-4.896 0,-2.11199 0.512,-4.19199 1.536,-6.24 1.02399,-2.11198 2.36799,-3.99998 4.032,-5.664 1.72799,-1.66398 3.61599,-3.00798 5.664,-4.032 2.11198,-1.08798 4.22398,-1.63198 6.336,-1.632 2.23998,2e-5 3.99998,0.54402 5.28,1.632 0.63997,-0.44798 1.43997,-0.83198 2.4,-1.152 1.02397,-0.31998 1.91997,-0.47998 2.688,-0.48 0.25597,2e-5 0.38397,0.16002 0.384,0.48 -1.47203,1.79202 -2.75203,3.77602 -3.84,5.952 -1.02403,2.11202 -1.82403,4.16001 -2.4,6.144 -0.57602,1.92001 -0.92802,3.64801 -1.056,5.184 -0.12802,1.53601 -2e-5,2.592 0.384,3.168 0.31998,0.384 0.86397,0.512 1.632,0.384 0.76797,-0.192 1.82397,-1.12 3.168,-2.784 m -18.432,2.496 c 0.76799,0 1.69599,-0.48 2.784,-1.44 1.15199,-0.95999 2.33598,-2.23999 3.552,-3.84 1.21598,-1.59999 2.39998,-3.39199 3.552,-5.376 1.21598,-1.98398 2.27198,-3.99998 3.168,-6.048 -0.25602,-0.83198 -0.86402,-1.50398 -1.824,-2.016 -0.89602,-0.51198 -1.95202,-0.76798 -3.168,-0.768 -1.47202,2e-5 -2.84802,0.38402 -4.128,1.152 -1.28001,0.70402 -2.40001,1.72802 -3.36,3.072 -0.89601,1.28002 -1.63201,2.84802 -2.208,4.704 -0.51201,1.79201 -0.76801,3.77601 -0.768,5.952 -10e-6,1.40801 0.22399,2.52801 0.672,3.36 0.51199,0.832 1.08799,1.248 1.728,1.248"
         style="font-size:96px;font-variant:normal;font-weight:bold;font-stretch:normal;fill:#aa0022;font-family:Tangerine;-inkscape-font-specification:Tangerine Bold"
         id="path2888" />
      <path
         d="m 842.187,642.904 c 0.31998,0.12802 0.44798,0.32002 0.384,0.576 -0.064,0.19202 -0.35202,0.35202 -0.864,0.48 -0.96002,2e-5 -2.08002,0.032 -3.36,0.096 -1.21602,0.064 -2.52801,0.16002 -3.936,0.288 -1.28001,3.13602 -2.33601,6.20802 -3.168,9.216 -0.83201,2.94401 -1.24801,5.34401 -1.248,7.2 -10e-6,2.176 0.83199,3.264 2.496,3.264 1.66399,0 3.51998,-1.44 5.568,-4.32 0.19198,-0.12799 0.35198,-0.12799 0.48,0 0.19198,0.12801 0.25598,0.35201 0.192,0.672 -1.08802,1.792 -2.46402,3.36 -4.128,4.704 -1.66401,1.28 -3.29601,1.92 -4.896,1.92 -1.66401,0 -2.91201,-0.384 -3.744,-1.152 -0.768,-0.832 -1.152,-1.952 -1.152,-3.36 0,-1.85599 0.448,-4.41599 1.344,-7.68 0.89599,-3.26398 2.04799,-6.59198 3.456,-9.984 -1.66401,0.19202 -3.20001,0.44802 -4.608,0.768 -0.32,-0.064 -0.416,-0.22398 -0.288,-0.48 0.192,-0.25598 0.48,-0.51198 0.864,-0.768 0.44799,-0.31998 0.95999,-0.57598 1.536,-0.768 0.57599,-0.25598 1.11999,-0.38398 1.632,-0.384 0.25599,2e-5 0.51199,2e-5 0.768,0 0.25599,2e-5 0.51199,-0.032 0.768,-0.096 0.83199,-1.85597 1.69599,-3.64797 2.592,-5.376 0.89599,-1.72797 1.79199,-3.29597 2.688,-4.704 0.38398,-0.44797 0.89598,-0.83197 1.536,-1.152 0.70398,-0.38396 1.37598,-0.67196 2.016,-0.864 0.63998,-0.19196 1.15198,-0.28796 1.536,-0.288 0.44798,-0.064 0.63998,0.032 0.576,0.288 -1.08802,1.66403 -2.17602,3.52003 -3.264,5.568 -1.02402,2.04803 -2.01602,4.19203 -2.976,6.432 1.21598,-0.064 2.43198,-0.096 3.648,-0.096 1.27998,2e-5 2.46398,2e-5 3.552,0"
         style="font-size:96px;font-variant:normal;font-weight:bold;font-stretch:normal;fill:#aa0022;font-family:Tangerine;-inkscape-font-specification:Tangerine Bold"
         id="path2891" />
      <path
         d="m 854.139,638.296 c -0.19202,0.19203 -0.41601,0.19203 -0.672,0 -0.19201,-0.19197 -0.35201,-0.44797 -0.48,-0.768 -0.12801,-0.38397 -0.19201,-0.76797 -0.192,-1.152 -10e-6,-0.44797 0.096,-0.83197 0.288,-1.152 0.70399,-0.89597 1.72798,-2.01597 3.072,-3.36 1.40798,-1.40796 2.84798,-2.59196 4.32,-3.552 0.12798,-0.064 0.28798,4e-5 0.48,0.192 0.19198,0.12804 0.25598,0.25604 0.192,0.384 -1.34402,1.21604 -2.62402,2.68804 -3.84,4.416 -1.21602,1.66403 -2.27202,3.32803 -3.168,4.992 m -10.272,10.848 c -0.192,0.12802 -0.352,0.096 -0.48,-0.096 -0.128,-0.25598 -0.16,-0.47998 -0.096,-0.672 2.36799,-1.91998 5.66399,-3.90398 9.888,-5.952 0.51199,2e-5 0.76798,0.28802 0.768,0.864 -0.83201,1.47202 -1.66401,3.07202 -2.496,4.8 -0.76801,1.72802 -1.47201,3.45602 -2.112,5.184 -0.57601,1.66401 -1.05601,3.29601 -1.44,4.896 -0.38401,1.53601 -0.57601,2.81601 -0.576,3.84 -10e-6,1.28 0.44799,1.92 1.344,1.92 0.70399,0 1.37599,-0.288 2.016,-0.864 0.70399,-0.64 1.50399,-1.43999 2.4,-2.4 0.12799,-0.12799 0.28799,-0.096 0.48,0.096 0.19199,0.12801 0.22399,0.35201 0.096,0.672 -1.40801,1.664 -2.81601,3.008 -4.224,4.032 -1.34401,1.024 -2.65601,1.536 -3.936,1.536 -2.24,0 -3.36,-1.056 -3.36,-3.168 0,-1.152 0.16,-2.49599 0.48,-4.032 0.384,-1.59999 0.864,-3.19999 1.44,-4.8 0.63999,-1.66399 1.31199,-3.26398 2.016,-4.8 0.76799,-1.59998 1.53599,-2.97598 2.304,-4.128 -0.70401,0.38402 -1.50401,0.86402 -2.4,1.44 -0.83201,0.57602 -1.53601,1.12002 -2.112,1.632"
         style="font-size:96px;font-variant:normal;font-weight:bold;font-stretch:normal;fill:#aa0022;font-family:Tangerine;-inkscape-font-specification:Tangerine Bold"
         id="path2893" />
      <path
         d="m 871.9965,642.424 c 2.23998,2e-5 3.90398,0.67202 4.992,2.016 1.08798,1.34402 1.63198,2.91202 1.632,4.704 -2e-5,2.49602 -0.51202,4.83201 -1.536,7.008 -0.96002,2.11201 -2.17602,4.00001 -3.648,5.664 -1.40802,1.6 -2.94402,2.88 -4.608,3.84 -1.66401,0.896 -3.16801,1.344 -4.512,1.344 -2.17601,0 -3.84001,-0.64 -4.992,-1.92 -1.088,-1.344 -1.632,-3.04 -1.632,-5.088 0,-1.85599 0.384,-3.80799 1.152,-5.856 0.832,-2.04799 1.88799,-3.93598 3.168,-5.664 1.34399,-1.72798 2.87999,-3.16798 4.608,-4.32 1.72799,-1.15198 3.51998,-1.72798 5.376,-1.728 m -5.28,21.6 c 1.98399,0 3.64798,-1.024 4.992,-3.072 1.40798,-2.11199 2.11198,-4.99199 2.112,-8.64 -2e-5,-1.91998 -0.38402,-3.51998 -1.152,-4.8 -0.76802,-1.27998 -1.88802,-1.91998 -3.36,-1.92 -2.04801,2e-5 -3.71201,0.99202 -4.992,2.976 -1.28001,1.98402 -1.92001,4.89601 -1.92,8.736 -10e-6,2.24001 0.38399,3.93601 1.152,5.088 0.83199,1.088 1.88799,1.632 3.168,1.632"
         style="font-size:96px;font-variant:normal;font-weight:bold;font-stretch:normal;fill:#aa0022;font-family:Tangerine;-inkscape-font-specification:Tangerine Bold"
         id="path2895" />
      <path
         d="m 909.519,660.28 c 0.12797,-0.12799 0.28797,-0.096 0.48,0.096 0.19197,0.12801 0.25597,0.32001 0.192,0.576 -1.15203,1.6 -2.49603,3.008 -4.032,4.224 -1.47203,1.216 -2.94402,1.824 -4.416,1.824 -1.08802,0 -1.95202,-0.352 -2.592,-1.056 -0.57602,-0.704 -0.86402,-1.632 -0.864,-2.784 -2e-5,-2.23999 0.38398,-4.67199 1.152,-7.296 0.83198,-2.62399 1.91998,-5.27998 3.264,-7.968 0.19198,-0.44798 0.28798,-0.92798 0.288,-1.44 -2e-5,-0.63998 -0.28802,-0.95998 -0.864,-0.96 -2.36802,2e-5 -4.99202,1.63202 -7.872,4.896 -2.88001,3.20001 -5.53601,8.32001 -7.968,15.36 -0.064,0.192 -0.28801,0.384 -0.672,0.576 -0.32001,0.128 -0.70401,0.256 -1.152,0.384 -0.448,0.064 -0.896,0.128 -1.344,0.192 -0.448,0.064 -0.8,0.096 -1.056,0.096 -0.32,0 -0.576,-0.064 -0.768,-0.192 -0.128,-0.128 -0.128,-0.352 0,-0.672 1.088,-2.752 2.176,-5.75999 3.264,-9.024 1.15199,-3.32799 2.14399,-6.65598 2.976,-9.984 0.19199,-0.63998 0.22399,-1.08798 0.096,-1.344 -0.12801,-0.31998 -0.35201,-0.47998 -0.672,-0.48 -0.70401,2e-5 -1.37601,0.32002 -2.016,0.96 -0.64,0.57602 -1.216,1.21602 -1.728,1.92 -0.192,0.12802 -0.384,0.096 -0.576,-0.096 -0.128,-0.19198 -0.16,-0.38398 -0.096,-0.576 0.32,-0.44798 0.736,-0.95998 1.248,-1.536 0.576,-0.57598 1.21599,-1.11998 1.92,-1.632 0.70399,-0.57598 1.43999,-1.02398 2.208,-1.344 0.76799,-0.38398 1.53599,-0.57598 2.304,-0.576 1.08799,2e-5 1.79199,0.35202 2.112,1.056 0.38399,0.64002 0.47999,1.44002 0.288,2.4 -0.32001,1.40802 -0.67201,2.75202 -1.056,4.032 -0.32001,1.21602 -0.73601,2.59201 -1.248,4.128 0.76799,-1.40799 1.69599,-2.78398 2.784,-4.128 1.15199,-1.40798 2.39998,-2.65598 3.744,-3.744 1.40798,-1.15198 2.91198,-2.04798 4.512,-2.688 1.59998,-0.70398 3.29597,-1.05598 5.088,-1.056 0.76797,2e-5 1.34397,0.19202 1.728,0.576 0.44797,0.38402 0.67197,0.83202 0.672,1.344 -3e-5,0.89602 -0.22403,1.69602 -0.672,2.4 -1.34403,2.43202 -2.49603,4.96002 -3.456,7.584 -0.89602,2.56001 -1.34402,4.86401 -1.344,6.912 -2e-5,1.664 0.54398,2.496 1.632,2.496 0.70397,0 1.40797,-0.288 2.112,-0.864 0.70397,-0.576 1.50397,-1.43999 2.4,-2.592"
         style="font-size:96px;font-variant:normal;font-weight:bold;font-stretch:normal;fill:#aa0022;font-family:Tangerine;-inkscape-font-specification:Tangerine Bold"
         id="path2897" />
      <path
         d="m 929.55,654.424 c 0,-2.75198 0.70399,-5.08798 2.112,-7.008 1.47199,-1.91998 3.45599,-3.39198 5.952,-4.416 0.31999,-0.12798 0.54399,-0.032 0.672,0.288 0.12799,0.32002 0.096,0.60802 -0.096,0.864 -1.15201,0.64002 -2.08001,1.63202 -2.784,2.976 -0.64001,1.34402 -0.96001,2.97602 -0.96,4.896 -10e-6,3.90401 1.43999,6.97601 4.32,9.216 2.87998,2.24 6.62398,3.36 11.232,3.36 6.01597,0 10.30396,-1.184 12.864,-3.552 2.62396,-2.36799 3.93596,-5.47199 3.936,-9.312 -4e-5,-3.58398 -0.73604,-6.71998 -2.208,-9.408 -1.47204,-2.75197 -3.10404,-5.31197 -4.896,-7.68 -1.72803,-2.43197 -3.32803,-4.86396 -4.8,-7.296 -1.47203,-2.43196 -2.20803,-5.18396 -2.208,-8.256 -3e-5,-1.79195 0.38397,-3.51995 1.152,-5.184 0.83197,-1.66395 1.95197,-3.13594 3.36,-4.416 1.47197,-1.34394 3.19996,-2.39994 5.184,-3.168 1.98396,-0.76794 4.15996,-1.15194 6.528,-1.152 3.26395,6e-5 5.82395,0.70406 7.68,2.112 1.91995,1.34406 2.87995,2.97606 2.88,4.896 -5e-5,1.08805 -0.48005,2.43205 -1.44,4.032 -0.89605,1.53605 -1.82405,2.88005 -2.784,4.032 -0.25605,0.12805 -0.48005,0.096 -0.672,-0.096 -0.19205,-0.19195 -0.25605,-0.41595 -0.192,-0.672 0.31995,-0.51195 0.57595,-1.11995 0.768,-1.824 0.25595,-0.76795 0.38395,-1.59995 0.384,-2.496 -5e-5,-1.02395 -0.22405,-1.98395 -0.672,-2.88 -0.44805,-0.95994 -1.08805,-1.75994 -1.92,-2.4 -0.83205,-0.70394 -1.79205,-1.24794 -2.88,-1.632 -1.08804,-0.44794 -2.24004,-0.67194 -3.456,-0.672 -3.20004,6e-5 -5.53604,0.76806 -7.008,2.304 -1.47203,1.53606 -2.20803,3.52005 -2.208,5.952 -3e-5,1.92005 0.35197,3.74405 1.056,5.472 0.76797,1.66404 1.69596,3.36004 2.784,5.088 1.08796,1.66404 2.23996,3.36004 3.456,5.088 1.27996,1.66403 2.46396,3.42403 3.552,5.28 1.08796,1.79203 1.98395,3.71203 2.688,5.76 0.76795,1.98402 1.15195,4.16002 1.152,6.528 -5e-5,2.49602 -0.64005,4.83201 -1.92,7.008 -1.21604,2.17601 -2.91204,4.09601 -5.088,5.76 -2.17604,1.6 -4.70404,2.88 -7.584,3.84 -2.88003,0.896 -5.98403,1.344 -9.312,1.344 -6.08002,0 -10.72001,-1.184 -13.92,-3.552 -3.13601,-2.36799 -4.704,-5.37599 -4.704,-9.024"
         style="font-size:96px;font-variant:normal;font-weight:bold;font-stretch:normal;fill:#aa0022;font-family:Tangerine;-inkscape-font-specification:Tangerine Bold"
         id="path2899" />
      <path
         d="m 991.2465,642.424 c 2.23998,2e-5 3.90398,0.67202 4.992,2.016 1.08798,1.34402 1.63198,2.91202 1.632,4.704 -2e-5,2.49602 -0.51202,4.83201 -1.536,7.008 -0.96002,2.11201 -2.17602,4.00001 -3.648,5.664 -1.40802,1.6 -2.94402,2.88 -4.608,3.84 -1.66401,0.896 -3.16801,1.344 -4.512,1.344 -2.17601,0 -3.84001,-0.64 -4.992,-1.92 -1.088,-1.344 -1.632,-3.04 -1.632,-5.088 0,-1.85599 0.384,-3.80799 1.152,-5.856 0.832,-2.04799 1.88799,-3.93598 3.168,-5.664 1.34399,-1.72798 2.87999,-3.16798 4.608,-4.32 1.72799,-1.15198 3.51998,-1.72798 5.376,-1.728 m -5.28,21.6 c 1.98399,0 3.64798,-1.024 4.992,-3.072 1.40798,-2.11199 2.11198,-4.99199 2.112,-8.64 -2e-5,-1.91998 -0.38402,-3.51998 -1.152,-4.8 -0.76802,-1.27998 -1.88802,-1.91998 -3.36,-1.92 -2.04801,2e-5 -3.71201,0.99202 -4.992,2.976 -1.28001,1.98402 -1.92001,4.89601 -1.92,8.736 -10e-6,2.24001 0.38399,3.93601 1.152,5.088 0.83199,1.088 1.88799,1.632 3.168,1.632"
         style="font-size:96px;font-variant:normal;font-weight:bold;font-stretch:normal;fill:#aa0022;font-family:Tangerine;-inkscape-font-specification:Tangerine Bold"
         id="path2901" />
      <path
         d="m 1044.801,597.208 c 1.216,7e-5 2.24,0.32007 3.072,0.96 0.8959,0.57607 1.5679,1.34407 2.016,2.304 0.4479,0.96007 0.6399,2.01606 0.576,3.168 -10e-5,1.15206 -0.2561,2.30406 -0.768,3.456 -0.5121,0.38406 -0.8321,0.28806 -0.96,-0.288 -0.128,-1.27994 -0.832,-2.39994 -2.112,-3.36 -1.28,-0.95994 -3.328,-1.43994 -6.144,-1.44 -1.728,6e-5 -3.328,0.16006 -4.8,0.48 -1.472,0.32006 -2.88,0.96006 -4.224,1.92 -1.28,0.96006 -2.56,2.36806 -3.84,4.224 -1.28,1.79206 -2.624,4.19205 -4.032,7.2 -1.408,3.00805 -2.912,6.72004 -4.512,11.136 -1.6,4.41604 -3.36,9.69603 -5.28,15.84 1.6,-0.064 3.232,-0.096 4.896,-0.096 1.664,2e-5 3.296,2e-5 4.896,0 0.32,0.12802 0.448,0.32002 0.384,0.576 -0.064,0.25602 -0.352,0.41602 -0.864,0.48 -1.472,0.064 -3.04,0.12802 -4.704,0.192 -1.664,2e-5 -3.328,0.064 -4.992,0.192 -0.128,0.32002 -0.256,0.67202 -0.384,1.056 -0.064,0.32002 -0.16,0.64002 -0.288,0.96 -2.496,8.00001 -5.184,14.81601 -8.064,20.448 -2.88,5.56799 -5.856,10.11199 -8.928,13.632 -3.13599,3.51998 -6.30399,6.07998 -9.504,7.68 -3.19998,1.59998 -6.36798,2.39998 -9.504,2.4 -2.11198,-2e-5 -3.71197,-0.51202 -4.8,-1.536 -1.15197,-1.02402 -1.72797,-2.33602 -1.728,-3.936 3e-5,-1.72802 0.60803,-3.29601 1.824,-4.704 0.19203,-0.19201 0.38403,-0.22401 0.576,-0.096 0.12803,0.12799 0.19203,0.28799 0.192,0.48 -0.31997,0.63999 -0.44797,1.31199 -0.384,2.016 0.064,0.76798 0.35203,1.47198 0.864,2.112 0.44802,0.63998 1.15202,1.15198 2.112,1.536 0.96002,0.44798 2.20802,0.67198 3.744,0.672 2.94402,-2e-5 5.56801,-0.44802 7.872,-1.344 2.30401,-0.83202 4.54401,-2.68802 6.72,-5.568 2.112,-2.81601 4.256,-6.88001 6.432,-12.192 2.24,-5.312 4.736,-12.44799 7.488,-21.408 l 0.576,-1.728 c -1.216,0.12802 -2.368,0.28802 -3.456,0.48 -1.088,0.12802 -2.144,0.28802 -3.168,0.48 -0.32,-0.064 -0.384,-0.22398 -0.192,-0.48 0.192,-0.25598 0.48,-0.51198 0.864,-0.768 0.448,-0.25598 0.96,-0.47998 1.536,-0.672 0.576,-0.25598 1.12,-0.41598 1.632,-0.48 0.512,-0.064 1.024,-0.096 1.536,-0.096 0.576,-0.064 1.152,-0.12798 1.728,-0.192 2.624,-7.93597 5.376,-14.78396 8.256,-20.544 2.944,-5.75995 5.952,-10.49594 9.024,-14.208 3.072,-3.77594 6.176,-6.52793 9.312,-8.256 3.2,-1.79193 6.368,-2.68793 9.504,-2.688"
         style="font-size:96px;font-variant:normal;font-weight:bold;font-stretch:normal;fill:#aa0022;font-family:Tangerine;-inkscape-font-specification:Tangerine Bold"
         id="path2903" />
      <path
         d="m 1036.6245,642.904 c 0.32,0.12802 0.448,0.32002 0.384,0.576 -0.064,0.19202 -0.352,0.35202 -0.864,0.48 -0.96,2e-5 -2.08,0.032 -3.36,0.096 -1.216,0.064 -2.528,0.16002 -3.936,0.288 -1.28,3.13602 -2.336,6.20802 -3.168,9.216 -0.832,2.94401 -1.248,5.34401 -1.248,7.2 0,2.176 0.832,3.264 2.496,3.264 1.664,0 3.52,-1.44 5.568,-4.32 0.192,-0.12799 0.352,-0.12799 0.48,0 0.192,0.12801 0.256,0.35201 0.192,0.672 -1.088,1.792 -2.464,3.36 -4.128,4.704 -1.664,1.28 -3.296,1.92 -4.896,1.92 -1.664,0 -2.912,-0.384 -3.744,-1.152 -0.768,-0.832 -1.152,-1.952 -1.152,-3.36 0,-1.85599 0.448,-4.41599 1.344,-7.68 0.896,-3.26398 2.048,-6.59198 3.456,-9.984 -1.664,0.19202 -3.2,0.44802 -4.608,0.768 -0.32,-0.064 -0.416,-0.22398 -0.288,-0.48 0.192,-0.25598 0.48,-0.51198 0.864,-0.768 0.448,-0.31998 0.96,-0.57598 1.536,-0.768 0.576,-0.25598 1.12,-0.38398 1.632,-0.384 0.256,2e-5 0.512,2e-5 0.768,0 0.256,2e-5 0.512,-0.032 0.768,-0.096 0.832,-1.85597 1.696,-3.64797 2.592,-5.376 0.896,-1.72797 1.792,-3.29597 2.688,-4.704 0.384,-0.44797 0.896,-0.83197 1.536,-1.152 0.704,-0.38396 1.376,-0.67196 2.016,-0.864 0.64,-0.19196 1.152,-0.28796 1.536,-0.288 0.448,-0.064 0.64,0.032 0.576,0.288 -1.088,1.66403 -2.176,3.52003 -3.264,5.568 -1.024,2.04803 -2.016,4.19203 -2.976,6.432 1.216,-0.064 2.432,-0.096 3.648,-0.096 1.28,2e-5 2.464,2e-5 3.552,0"
         style="font-size:96px;font-variant:normal;font-weight:bold;font-stretch:normal;fill:#aa0022;font-family:Tangerine;-inkscape-font-specification:Tangerine Bold"
         id="path2905" />
      <path
         d="m 1068.3525,642.424 c 1.088,2e-5 2.016,0.60802 2.784,1.824 0.768,1.15202 1.152,2.65602 1.152,4.512 0,2.49602 -0.576,4.86401 -1.728,7.104 -1.088,2.17601 -2.464,4.09601 -4.128,5.76 -1.664,1.664 -3.456,2.976 -5.376,3.936 -1.92,0.96 -3.68,1.44 -5.28,1.44 -1.536,0 -2.688,-0.48 -3.456,-1.44 -0.704,-0.96 -1.056,-2.272 -1.056,-3.936 0,-1.53599 0.128,-3.29599 0.384,-5.28 0.256,-1.98399 0.544,-3.61599 0.864,-4.896 -1.28,1.66401 -2.624,3.64801 -4.032,5.952 -1.408,2.30401 -2.816,4.672 -4.224,7.104 -0.384,0.704 -0.992,1.312 -1.824,1.824 -0.832,0.448 -1.632,0.672 -2.4,0.672 -0.512,0 -0.704,-0.352 -0.576,-1.056 0.448,-1.536 0.8,-3.424 1.056,-5.664 0.32,-2.30399 0.48,-4.54399 0.48,-6.72 0,-2.17598 -0.16,-4.06398 -0.48,-5.664 -0.256,-1.59998 -0.768,-2.55998 -1.536,-2.88 -0.448,-0.12798 -0.96,2e-5 -1.536,0.384 -0.576,0.38402 -1.024,0.92802 -1.344,1.632 -0.128,0.12802 -0.288,0.12802 -0.48,0 -0.192,-0.19198 -0.256,-0.41598 -0.192,-0.672 0.32,-0.76798 1.056,-1.59998 2.208,-2.496 1.216,-0.95998 2.496,-1.43998 3.84,-1.44 1.536,2e-5 2.624,0.80002 3.264,2.4 0.704,1.60002 1.056,4.22402 1.056,7.872 0,1.66401 -0.064,3.20001 -0.192,4.608 -0.128,1.34401 -0.288,2.52801 -0.48,3.552 1.28,-2.23999 2.496,-4.15999 3.648,-5.76 1.152,-1.59999 2.24,-3.07199 3.264,-4.416 0.384,-0.51198 0.704,-1.08798 0.96,-1.728 0.32,-0.70398 0.64,-1.66398 0.96,-2.88 0.064,-0.38398 0.352,-0.73598 0.864,-1.056 0.576,-0.38398 1.152,-0.67198 1.728,-0.864 0.64,-0.19198 1.184,-0.28798 1.632,-0.288 0.448,-0.064 0.672,0.064 0.672,0.384 -1.024,2.11202 -1.792,4.57602 -2.304,7.392 -0.512,2.75201 -0.768,5.31201 -0.768,7.68 0,1.60001 0.384,2.784 1.152,3.552 0.768,0.704 1.696,1.056 2.784,1.056 1.152,0 2.24,-0.352 3.264,-1.056 1.088,-0.704 2.048,-1.63199 2.88,-2.784 0.832,-1.15199 1.504,-2.49599 2.016,-4.032 0.512,-1.59999 0.768,-3.26399 0.768,-4.992 0,-2.49598 -0.48,-4.09598 -1.44,-4.8 -0.96,-0.70398 -1.984,-0.60798 -3.072,0.288 -0.256,0.064 -0.448,0.032 -0.576,-0.096 -0.128,-0.19198 -0.16,-0.38398 -0.096,-0.576 0.192,-0.31998 0.512,-0.67198 0.96,-1.056 0.448,-0.44798 0.896,-0.83198 1.344,-1.152 0.512,-0.38398 0.992,-0.67198 1.44,-0.864 0.512,-0.25598 0.896,-0.38398 1.152,-0.384"
         style="font-size:96px;font-variant:normal;font-weight:bold;font-stretch:normal;fill:#aa0022;font-family:Tangerine;-inkscape-font-specification:Tangerine Bold"
         id="path2907" />
      <path
         d="m 1102.809,660.952 c 0.128,-0.12799 0.288,-0.12799 0.48,0 0.192,0.12801 0.256,0.32001 0.192,0.576 -1.152,1.664 -2.432,3.008 -3.84,4.032 -1.408,0.96 -2.752,1.44 -4.032,1.44 -1.472,0 -2.432,-1.024 -2.88,-3.072 -0.384,-2.11199 -0.16,-4.60799 0.672,-7.488 -1.728,2.75201 -3.616,5.12001 -5.664,7.104 -1.984,1.92 -4.096,3.072 -6.336,3.456 -1.536,0 -2.72,-0.704 -3.552,-2.112 -0.832,-1.408 -1.248,-3.03999 -1.248,-4.896 0,-2.11199 0.512,-4.19199 1.536,-6.24 1.024,-2.11198 2.368,-3.99998 4.032,-5.664 1.728,-1.66398 3.616,-3.00798 5.664,-4.032 2.112,-1.08798 4.224,-1.63198 6.336,-1.632 2.24,2e-5 4,0.54402 5.28,1.632 0.64,-0.44798 1.44,-0.83198 2.4,-1.152 1.024,-0.31998 1.92,-0.47998 2.688,-0.48 0.256,2e-5 0.384,0.16002 0.384,0.48 -1.472,1.79202 -2.752,3.77602 -3.84,5.952 -1.024,2.11202 -1.824,4.16001 -2.4,6.144 -0.576,1.92001 -0.928,3.64801 -1.056,5.184 -0.128,1.53601 0,2.592 0.384,3.168 0.32,0.384 0.864,0.512 1.632,0.384 0.768,-0.192 1.824,-1.12 3.168,-2.784 m -18.432,2.496 c 0.768,0 1.696,-0.48 2.784,-1.44 1.152,-0.95999 2.336,-2.23999 3.552,-3.84 1.216,-1.59999 2.4,-3.39199 3.552,-5.376 1.216,-1.98398 2.272,-3.99998 3.168,-6.048 -0.256,-0.83198 -0.864,-1.50398 -1.824,-2.016 -0.896,-0.51198 -1.952,-0.76798 -3.168,-0.768 -1.472,2e-5 -2.848,0.38402 -4.128,1.152 -1.28,0.70402 -2.4,1.72802 -3.36,3.072 -0.896,1.28002 -1.632,2.84802 -2.208,4.704 -0.512,1.79201 -0.768,3.77601 -0.768,5.952 0,1.40801 0.224,2.52801 0.672,3.36 0.512,0.832 1.088,1.248 1.728,1.248"
         style="font-size:96px;font-variant:normal;font-weight:bold;font-stretch:normal;fill:#aa0022;font-family:Tangerine;-inkscape-font-specification:Tangerine Bold"
         id="path2909" />
      <path
         d="m 1118.181,645.208 c 0,0.96002 -0.096,2.04802 -0.288,3.264 -0.192,1.21602 -0.448,2.46402 -0.768,3.744 1.28,-3.07198 2.688,-5.47198 4.224,-7.2 1.536,-1.72798 3.2,-2.59198 4.992,-2.592 0.96,2e-5 1.696,0.22402 2.208,0.672 0.512,0.44802 0.768,1.02402 0.768,1.728 0,0.64002 -0.256,1.47202 -0.768,2.496 -0.448,1.02402 -0.832,1.72802 -1.152,2.112 -0.128,0.064 -0.256,0.064 -0.384,0 -0.128,-0.12798 -0.192,-0.25598 -0.192,-0.384 0,-0.44798 -0.192,-0.83198 -0.576,-1.152 -0.32,-0.31998 -0.832,-0.47998 -1.536,-0.48 -2.24,2e-5 -4.288,1.53602 -6.144,4.608 -1.792,3.00801 -3.456,7.36001 -4.992,13.056 -0.064,0.32 -0.288,0.608 -0.672,0.864 -0.384,0.192 -0.832,0.384 -1.344,0.576 -0.448,0.128 -0.928,0.256 -1.44,0.384 -0.512,0.064 -0.96,0.096 -1.344,0.096 -0.704,0 -0.896,-0.384 -0.576,-1.152 0.576,-1.344 1.12,-2.784 1.632,-4.32 0.576,-1.59999 1.088,-3.19999 1.536,-4.8 0.448,-1.59999 0.832,-3.13599 1.152,-4.608 0.32,-1.53598 0.576,-2.94398 0.768,-4.224 0.128,-0.95998 0.16,-1.69598 0.096,-2.208 0,-0.51198 -0.256,-0.76798 -0.768,-0.768 -0.64,2e-5 -1.312,0.28802 -2.016,0.864 -0.64,0.51202 -1.248,1.18402 -1.824,2.016 -0.256,0.19202 -0.512,0.22402 -0.768,0.096 -0.192,-0.19198 -0.224,-0.41598 -0.096,-0.672 0.384,-0.51198 0.832,-1.02398 1.344,-1.536 0.576,-0.57598 1.184,-1.08798 1.824,-1.536 0.704,-0.51198 1.408,-0.92798 2.112,-1.248 0.768,-0.31998 1.536,-0.47998 2.304,-0.48 1.024,2e-5 1.728,0.25602 2.112,0.768 0.384,0.44802 0.576,1.12002 0.576,2.016"
         style="font-size:96px;font-variant:normal;font-weight:bold;font-stretch:normal;fill:#aa0022;font-family:Tangerine;-inkscape-font-specification:Tangerine Bold"
         id="path2911" />
      <path
         d="m 1148.3145,647.224 c 0,3.64802 -4.832,6.14401 -14.496,7.488 -0.064,0.64001 -0.128,1.28001 -0.192,1.92 0,0.64001 0,1.31201 0,2.016 0,1.66401 0.384,2.94401 1.152,3.84 0.768,0.896 1.984,1.344 3.648,1.344 1.216,0 2.464,-0.352 3.744,-1.056 1.28,-0.704 2.304,-1.59999 3.072,-2.688 0.256,-0.12799 0.448,-0.064 0.576,0.192 0.128,0.19201 0.16,0.41601 0.096,0.672 -1.28,1.664 -2.912,3.104 -4.896,4.32 -1.92,1.152 -4,1.728 -6.24,1.728 -2.24,0 -3.872,-0.544 -4.896,-1.632 -0.96,-1.152 -1.44,-2.752 -1.44,-4.8 0,-1.98399 0.416,-4.03199 1.248,-6.144 0.832,-2.17599 1.888,-4.15998 3.168,-5.952 1.344,-1.79198 2.848,-3.23198 4.512,-4.32 1.728,-1.15198 3.456,-1.72798 5.184,-1.728 1.728,2e-5 3.104,0.51202 4.128,1.536 1.088,0.96002 1.632,2.04802 1.632,3.264 m -8.352,-2.304 c -1.472,2e-5 -2.752,0.70402 -3.84,2.112 -1.024,1.34402 -1.728,3.45602 -2.112,6.336 3.072,-0.31999 5.344,-0.89599 6.816,-1.728 1.472,-0.89598 2.208,-1.98398 2.208,-3.264 0,-0.95998 -0.288,-1.75998 -0.864,-2.4 -0.576,-0.70398 -1.312,-1.05598 -2.208,-1.056"
         style="font-size:96px;font-variant:normal;font-weight:bold;font-stretch:normal;fill:#aa0022;font-family:Tangerine;-inkscape-font-specification:Tangerine Bold"
         id="path2913" />
      <path
         d="m 1208.8635,597.208 c 1.216,7e-5 2.24,0.32007 3.072,0.96 0.8959,0.57607 1.5679,1.34407 2.016,2.304 0.4479,0.96007 0.6399,2.01606 0.576,3.168 -10e-5,1.15206 -0.2561,2.30406 -0.768,3.456 -0.5121,0.38406 -0.8321,0.28806 -0.96,-0.288 -0.128,-1.27994 -0.832,-2.39994 -2.112,-3.36 -1.28,-0.95994 -3.328,-1.43994 -6.144,-1.44 -1.728,6e-5 -3.328,0.16006 -4.8,0.48 -1.472,0.32006 -2.88,0.96006 -4.224,1.92 -1.28,0.96006 -2.56,2.36806 -3.84,4.224 -1.28,1.79206 -2.624,4.19205 -4.032,7.2 -1.408,3.00805 -2.912,6.72004 -4.512,11.136 -1.6,4.41604 -3.36,9.69603 -5.28,15.84 1.6,-0.064 3.232,-0.096 4.896,-0.096 1.664,2e-5 3.296,2e-5 4.896,0 0.32,0.12802 0.448,0.32002 0.384,0.576 -0.064,0.25602 -0.352,0.41602 -0.864,0.48 -1.472,0.064 -3.04,0.12802 -4.704,0.192 -1.664,2e-5 -3.328,0.064 -4.992,0.192 -0.128,0.32002 -0.256,0.67202 -0.384,1.056 -0.064,0.32002 -0.16,0.64002 -0.288,0.96 -2.496,8.00001 -5.184,14.81601 -8.064,20.448 -2.88,5.56799 -5.856,10.11199 -8.928,13.632 -3.136,3.51998 -6.304,6.07998 -9.504,7.68 -3.2,1.59998 -6.368,2.39998 -9.504,2.4 -2.112,-2e-5 -3.712,-0.51202 -4.8,-1.536 -1.152,-1.02402 -1.728,-2.33602 -1.728,-3.936 0,-1.72802 0.608,-3.29601 1.824,-4.704 0.192,-0.19201 0.384,-0.22401 0.576,-0.096 0.128,0.12799 0.192,0.28799 0.192,0.48 -0.32,0.63999 -0.448,1.31199 -0.384,2.016 0.064,0.76798 0.352,1.47198 0.864,2.112 0.448,0.63998 1.152,1.15198 2.112,1.536 0.96,0.44798 2.208,0.67198 3.744,0.672 2.944,-2e-5 5.568,-0.44802 7.872,-1.344 2.304,-0.83202 4.544,-2.68802 6.72,-5.568 2.112,-2.81601 4.256,-6.88001 6.432,-12.192 2.24,-5.312 4.736,-12.44799 7.488,-21.408 l 0.576,-1.728 c -1.216,0.12802 -2.368,0.28802 -3.456,0.48 -1.088,0.12802 -2.144,0.28802 -3.168,0.48 -0.32,-0.064 -0.384,-0.22398 -0.192,-0.48 0.192,-0.25598 0.48,-0.51198 0.864,-0.768 0.448,-0.25598 0.96,-0.47998 1.536,-0.672 0.576,-0.25598 1.12,-0.41598 1.632,-0.48 0.512,-0.064 1.024,-0.096 1.536,-0.096 0.576,-0.064 1.152,-0.12798 1.728,-0.192 2.624,-7.93597 5.376,-14.78396 8.256,-20.544 2.944,-5.75995 5.952,-10.49594 9.024,-14.208 3.072,-3.77594 6.176,-6.52793 9.312,-8.256 3.2,-1.79193 6.368,-2.68793 9.504,-2.688"
         style="font-size:96px;font-variant:normal;font-weight:bold;font-stretch:normal;fill:#aa0022;font-family:Tangerine;-inkscape-font-specification:Tangerine Bold"
         id="path2915" />
      <path
         d="m 1196.559,642.424 c 2.24,2e-5 3.904,0.67202 4.992,2.016 1.088,1.34402 1.632,2.91202 1.632,4.704 0,2.49602 -0.512,4.83201 -1.536,7.008 -0.96,2.11201 -2.176,4.00001 -3.648,5.664 -1.408,1.6 -2.944,2.88 -4.608,3.84 -1.664,0.896 -3.168,1.344 -4.512,1.344 -2.176,0 -3.84,-0.64 -4.992,-1.92 -1.088,-1.344 -1.632,-3.04 -1.632,-5.088 0,-1.85599 0.384,-3.80799 1.152,-5.856 0.832,-2.04799 1.888,-3.93598 3.168,-5.664 1.344,-1.72798 2.88,-3.16798 4.608,-4.32 1.728,-1.15198 3.52,-1.72798 5.376,-1.728 m -5.28,21.6 c 1.984,0 3.648,-1.024 4.992,-3.072 1.408,-2.11199 2.112,-4.99199 2.112,-8.64 0,-1.91998 -0.384,-3.51998 -1.152,-4.8 -0.768,-1.27998 -1.888,-1.91998 -3.36,-1.92 -2.048,2e-5 -3.712,0.99202 -4.992,2.976 -1.28,1.98402 -1.92,4.89601 -1.92,8.736 0,2.24001 0.384,3.93601 1.152,5.088 0.832,1.088 1.888,1.632 3.168,1.632"
         style="font-size:96px;font-variant:normal;font-weight:bold;font-stretch:normal;fill:#aa0022;font-family:Tangerine;-inkscape-font-specification:Tangerine Bold"
         id="path2917" />
      <path
         d="m 1216.9935,645.208 c 0,0.96002 -0.096,2.04802 -0.288,3.264 -0.192,1.21602 -0.448,2.46402 -0.768,3.744 1.28,-3.07198 2.688,-5.47198 4.224,-7.2 1.536,-1.72798 3.2,-2.59198 4.992,-2.592 0.96,2e-5 1.696,0.22402 2.208,0.672 0.512,0.44802 0.768,1.02402 0.768,1.728 0,0.64002 -0.256,1.47202 -0.768,2.496 -0.448,1.02402 -0.832,1.72802 -1.152,2.112 -0.128,0.064 -0.256,0.064 -0.384,0 -0.128,-0.12798 -0.192,-0.25598 -0.192,-0.384 0,-0.44798 -0.192,-0.83198 -0.576,-1.152 -0.32,-0.31998 -0.832,-0.47998 -1.536,-0.48 -2.24,2e-5 -4.288,1.53602 -6.144,4.608 -1.792,3.00801 -3.456,7.36001 -4.992,13.056 -0.064,0.32 -0.288,0.608 -0.672,0.864 -0.384,0.192 -0.832,0.384 -1.344,0.576 -0.448,0.128 -0.928,0.256 -1.44,0.384 -0.512,0.064 -0.96,0.096 -1.344,0.096 -0.704,0 -0.896,-0.384 -0.576,-1.152 0.576,-1.344 1.12,-2.784 1.632,-4.32 0.576,-1.59999 1.088,-3.19999 1.536,-4.8 0.448,-1.59999 0.832,-3.13599 1.152,-4.608 0.32,-1.53598 0.576,-2.94398 0.768,-4.224 0.128,-0.95998 0.16,-1.69598 0.096,-2.208 0,-0.51198 -0.256,-0.76798 -0.768,-0.768 -0.64,2e-5 -1.312,0.28802 -2.016,0.864 -0.64,0.51202 -1.248,1.18402 -1.824,2.016 -0.256,0.19202 -0.512,0.22402 -0.768,0.096 -0.192,-0.19198 -0.224,-0.41598 -0.096,-0.672 0.384,-0.51198 0.832,-1.02398 1.344,-1.536 0.576,-0.57598 1.184,-1.08798 1.824,-1.536 0.704,-0.51198 1.408,-0.92798 2.112,-1.248 0.768,-0.31998 1.536,-0.47998 2.304,-0.48 1.024,2e-5 1.728,0.25602 2.112,0.768 0.384,0.44802 0.576,1.12002 0.576,2.016"
         style="font-size:96px;font-variant:normal;font-weight:bold;font-stretch:normal;fill:#aa0022;font-family:Tangerine;-inkscape-font-specification:Tangerine Bold"
         id="path2919" />
      <path
         d="m 1294.0125,608.92 c -4.3521,6e-5 -8.352,0.92806 -12,2.784 -3.584,1.79205 -6.688,4.28805 -9.312,7.488 -2.56,3.13604 -4.576,6.84804 -6.048,11.136 -1.408,4.22403 -2.112,8.80003 -2.112,13.728 0,4.35202 0.768,7.64802 2.304,9.888 1.6,2.24001 4.032,3.36001 7.296,3.36 3.776,10e-6 7.04,-1.02399 9.792,-3.072 2.752,-2.11199 4.672,-5.08798 5.76,-8.928 0.1279,-0.51198 0.5439,-0.92798 1.248,-1.248 0.7039,-0.38398 1.4399,-0.63998 2.208,-0.768 0.7679,-0.12798 1.4719,-0.12798 2.112,0 0.6399,0.064 0.9599,0.28802 0.96,0.672 -2.0481,7.23202 -4.4801,13.44001 -7.296,18.624 -2.816,5.184 -5.984,9.408 -9.504,12.672 -3.52,3.32799 -7.36,5.75999 -11.52,7.296 -4.16,1.53598 -8.576,2.30398 -13.248,2.304 -6.336,-2e-5 -11.168,-1.31202 -14.496,-3.936 -3.264,-2.62401 -4.896,-6.17601 -4.896,-10.656 0,-2.688 0.832,-5.184 2.496,-7.488 1.664,-2.30399 4.224,-4.09599 7.68,-5.376 0.32,-0.12799 0.512,10e-6 0.576,0.384 0.064,0.32001 -0.032,0.60801 -0.288,0.864 -1.536,0.89601 -2.688,2.08001 -3.456,3.552 -0.704,1.408 -1.056,3.328 -1.056,5.76 0,4.79999 1.376,8.51199 4.128,11.136 2.816,2.68799 6.752,4.03198 11.808,4.032 3.456,-2e-5 6.656,-0.54402 9.6,-1.632 2.944,-1.02401 5.664,-2.72001 8.16,-5.088 2.496,-2.30401 4.768,-5.376 6.816,-9.216 2.048,-3.776 3.936,-8.41599 5.664,-13.92 -1.984,1.66401 -4.256,3.07201 -6.816,4.224 -2.496,1.08801 -5.28,1.63201 -8.352,1.632 -9.472,10e-6 -14.208,-4.28799 -14.208,-12.864 0,-2.94398 0.48,-5.98397 1.44,-9.12 1.024,-3.19997 2.432,-6.30396 4.224,-9.312 1.792,-3.07196 3.936,-5.95195 6.432,-8.64 2.496,-2.75195 5.216,-5.15195 8.16,-7.2 3.008,-2.04794 6.208,-3.67994 9.6,-4.896 3.3919,-1.21594 6.9119,-1.82394 10.56,-1.824 3.0719,6e-5 5.5359,0.67206 7.392,2.016 1.8559,1.34406 2.7839,3.04006 2.784,5.088 -10e-5,0.70405 -0.2241,1.53605 -0.672,2.496 -0.4481,0.96005 -1.0241,1.95205 -1.728,2.976 -0.6401,0.96005 -1.3121,1.92005 -2.016,2.88 -0.7041,0.89605 -1.2801,1.69604 -1.728,2.4 -0.1921,0.12804 -0.4161,0.12804 -0.672,0 -0.2561,-0.19196 -0.3521,-0.41596 -0.288,-0.672 0.8959,-1.40795 1.5359,-2.65595 1.92,-3.744 0.4479,-1.08795 0.6719,-2.27195 0.672,-3.552 -10e-5,-1.79195 -0.8321,-3.26394 -2.496,-4.416 -1.6001,-1.21594 -4.1281,-1.82394 -7.584,-1.824"
         style="font-size:96px;font-variant:normal;font-weight:bold;font-stretch:normal;fill:#aa0022;font-family:Tangerine;-inkscape-font-specification:Tangerine Bold"
         id="path2921" />
      <path
         d="m 1320.0645,647.224 c 0,3.64802 -4.832,6.14401 -14.496,7.488 -0.064,0.64001 -0.128,1.28001 -0.192,1.92 0,0.64001 0,1.31201 0,2.016 0,1.66401 0.384,2.94401 1.152,3.84 0.768,0.896 1.984,1.344 3.648,1.344 1.216,0 2.464,-0.352 3.744,-1.056 1.28,-0.704 2.304,-1.59999 3.072,-2.688 0.256,-0.12799 0.448,-0.064 0.576,0.192 0.128,0.19201 0.16,0.41601 0.096,0.672 -1.28,1.664 -2.912,3.104 -4.896,4.32 -1.92,1.152 -4,1.728 -6.24,1.728 -2.24,0 -3.872,-0.544 -4.896,-1.632 -0.96,-1.152 -1.44,-2.752 -1.44,-4.8 0,-1.98399 0.416,-4.03199 1.248,-6.144 0.832,-2.17599 1.888,-4.15998 3.168,-5.952 1.344,-1.79198 2.848,-3.23198 4.512,-4.32 1.728,-1.15198 3.456,-1.72798 5.184,-1.728 1.728,2e-5 3.104,0.51202 4.128,1.536 1.088,0.96002 1.632,2.04802 1.632,3.264 m -8.352,-2.304 c -1.472,2e-5 -2.752,0.70402 -3.84,2.112 -1.024,1.34402 -1.728,3.45602 -2.112,6.336 3.072,-0.31999 5.344,-0.89599 6.816,-1.728 1.472,-0.89598 2.208,-1.98398 2.208,-3.264 0,-0.95998 -0.288,-1.75998 -0.864,-2.4 -0.576,-0.70398 -1.312,-1.05598 -2.208,-1.056"
         style="font-size:96px;font-variant:normal;font-weight:bold;font-stretch:normal;fill:#aa0022;font-family:Tangerine;-inkscape-font-specification:Tangerine Bold"
         id="path2923" />
      <path
         d="m 1342.752,647.224 c 0,3.64802 -4.832,6.14401 -14.496,7.488 -0.064,0.64001 -0.128,1.28001 -0.192,1.92 0,0.64001 0,1.31201 0,2.016 0,1.66401 0.384,2.94401 1.152,3.84 0.768,0.896 1.984,1.344 3.648,1.344 1.216,0 2.464,-0.352 3.744,-1.056 1.28,-0.704 2.304,-1.59999 3.072,-2.688 0.256,-0.12799 0.448,-0.064 0.576,0.192 0.128,0.19201 0.16,0.41601 0.096,0.672 -1.28,1.664 -2.912,3.104 -4.896,4.32 -1.92,1.152 -4,1.728 -6.24,1.728 -2.24,0 -3.872,-0.544 -4.896,-1.632 -0.96,-1.152 -1.44,-2.752 -1.44,-4.8 0,-1.98399 0.416,-4.03199 1.248,-6.144 0.832,-2.17599 1.888,-4.15998 3.168,-5.952 1.344,-1.79198 2.848,-3.23198 4.512,-4.32 1.728,-1.15198 3.456,-1.72798 5.184,-1.728 1.728,2e-5 3.104,0.51202 4.128,1.536 1.088,0.96002 1.632,2.04802 1.632,3.264 m -8.352,-2.304 c -1.472,2e-5 -2.752,0.70402 -3.84,2.112 -1.024,1.34402 -1.728,3.45602 -2.112,6.336 3.072,-0.31999 5.344,-0.89599 6.816,-1.728 1.472,-0.89598 2.208,-1.98398 2.208,-3.264 0,-0.95998 -0.288,-1.75998 -0.864,-2.4 -0.576,-0.70398 -1.312,-1.05598 -2.208,-1.056"
         style="font-size:96px;font-variant:normal;font-weight:bold;font-stretch:normal;fill:#aa0022;font-family:Tangerine;-inkscape-font-specification:Tangerine Bold"
         id="path2925" />
      <path
         d="m 1359.5835,654.328 c 0.704,3.39201 1.6,6.01601 2.688,7.872 1.152,1.792 2.528,2.688 4.128,2.688 0.704,0 1.344,-0.16 1.92,-0.48 0.576,-0.32 1.216,-0.928 1.92,-1.824 0.192,-0.064 0.352,0 0.48,0.192 0.192,0.128 0.256,0.288 0.192,0.48 -1.984,2.496 -4.48,3.744 -7.488,3.744 -2.432,0 -4.288,-1.056 -5.568,-3.168 -1.216,-2.17599 -2.208,-5.40799 -2.976,-9.696 -0.192,-0.51199 -0.064,-0.83199 0.384,-0.96 1.152,0.25601 2.304,0.28801 3.456,0.096 1.152,-0.19199 2.176,-0.54399 3.072,-1.056 0.96,-0.51198 1.696,-1.18398 2.208,-2.016 0.576,-0.83198 0.864,-1.75998 0.864,-2.784 0,-1.59998 -0.8,-2.39998 -2.4,-2.4 -2.24,2e-5 -4.32,1.08802 -6.24,3.264 -1.92,2.11202 -3.328,5.24801 -4.224,9.408 -0.32,1.08801 -0.608,2.24001 -0.864,3.456 -0.256,1.152 -0.48,2.176 -0.672,3.072 -0.128,0.512 -0.256,0.896 -0.384,1.152 -0.128,0.192 -0.416,0.416 -0.864,0.672 -0.512,0.256 -1.152,0.48 -1.92,0.672 -0.768,0.192 -1.344,0.288 -1.728,0.288 -0.448,0 -0.64,-0.32 -0.576,-0.96 1.344,-7.10399 3.04,-13.79199 5.088,-20.064 2.112,-6.33597 4.448,-12.15997 7.008,-17.472 2.56,-5.31196 5.28,-10.07995 8.16,-14.304 2.944,-4.22394 5.888,-7.77594 8.832,-10.656 2.944,-2.94393 5.856,-5.18393 8.736,-6.72 2.88,-1.59993 5.6,-2.39993 8.16,-2.4 1.6,7e-5 2.8479,0.32007 3.744,0.96 0.9599,0.64007 1.5999,1.47207 1.92,2.496 0.3199,0.96007 0.3519,2.01607 0.096,3.168 -0.1921,1.15206 -0.6401,2.20806 -1.344,3.168 -0.4481,0.44806 -0.7361,0.35206 -0.864,-0.288 0.3199,-1.27994 -10e-5,-2.52793 -0.96,-3.744 -0.96,-1.21593 -2.56,-1.82393 -4.8,-1.824 -3.456,7e-5 -6.816,1.02407 -10.08,3.072 -3.2,1.98406 -6.304,5.12006 -9.312,9.408 -3.008,4.22405 -5.888,9.66405 -8.64,16.32 -2.688,6.59203 -5.216,14.49603 -7.584,23.712 1.216,-2.36798 2.816,-4.35198 4.8,-5.952 2.048,-1.66398 4.448,-2.49598 7.2,-2.496 1.856,2e-5 3.072,0.48002 3.648,1.44 0.64,0.89602 0.96,1.79202 0.96,2.688 0,2.04802 -0.96,3.80802 -2.88,5.28 -1.92,1.40801 -4.352,2.24001 -7.296,2.496"
         style="font-size:96px;font-variant:normal;font-weight:bold;font-stretch:normal;fill:#aa0022;font-family:Tangerine;-inkscape-font-specification:Tangerine Bold"
         id="path2927" />
      <path
         d="m 1385.505,642.424 c 1.408,2e-5 2.528,0.19202 3.36,0.576 0.896,0.38402 1.344,0.86402 1.344,1.44 0,0.70402 -0.192,1.50402 -0.576,2.4 -0.32,0.89602 -0.64,1.63202 -0.96,2.208 -0.128,0.12802 -0.288,0.16002 -0.48,0.096 -0.192,-0.12798 -0.288,-0.31998 -0.288,-0.576 0.192,-0.44798 0.288,-1.08798 0.288,-1.92 0,-0.89598 -0.256,-1.63198 -0.768,-2.208 -0.448,-0.57598 -1.088,-0.86398 -1.92,-0.864 -1.088,2e-5 -1.984,0.35202 -2.688,1.056 -0.64,0.64002 -0.96,1.56802 -0.96,2.784 0,1.02402 0.256,2.01602 0.768,2.976 0.576,0.89602 1.184,1.82401 1.824,2.784 0.704,0.89601 1.344,1.88801 1.92,2.976 0.576,1.02401 0.864,2.20801 0.864,3.552 0,2.304 -0.928,4.096 -2.784,5.376 -1.856,1.28 -4.288,1.92 -7.296,1.92 -2.176,0 -3.904,-0.352 -5.184,-1.056 -1.216,-0.704 -1.824,-1.472 -1.824,-2.304 0,-0.256 0.096,-0.608 0.288,-1.056 0.192,-0.448 0.448,-0.92799 0.768,-1.44 0.32,-0.51199 0.672,-1.02399 1.056,-1.536 0.384,-0.51199 0.8,-0.92799 1.248,-1.248 0.192,-0.12799 0.352,-0.096 0.48,0.096 0.192,0.19201 0.224,0.38401 0.096,0.576 -0.384,0.38401 -0.672,0.80001 -0.864,1.248 -0.192,0.38401 -0.288,0.92801 -0.288,1.632 0,1.152 0.384,2.112 1.152,2.88 0.768,0.704 1.76,1.056 2.976,1.056 1.664,0 2.944,-0.448 3.84,-1.344 0.96,-0.96 1.44,-2.112 1.44,-3.456 0,-1.21599 -0.288,-2.33599 -0.864,-3.36 -0.512,-1.08799 -1.088,-2.11199 -1.728,-3.072 -0.64,-1.02399 -1.248,-2.04799 -1.824,-3.072 -0.512,-1.02398 -0.768,-2.11198 -0.768,-3.264 0,-1.66398 0.704,-3.03998 2.112,-4.128 1.408,-1.15198 3.488,-1.72798 6.24,-1.728"
         style="font-size:96px;font-variant:normal;font-weight:bold;font-stretch:normal;fill:#aa0022;font-family:Tangerine;-inkscape-font-specification:Tangerine Bold"
         id="path2929" />
    </g>
  </g>
</svg>
